inDegrees=no
num_controls=7
num_derivatives=13
num_iterations=178
num_multipliers=7
num_parameters=0
num_slacks=7
num_states=26
objective=5.880475
objective_accelerations=0.536516
objective_balance=0.052731
objective_effort=0.492790
objective_height=4.774640
objective_ligament=0.023798
solver_duration=1850.805751
status=Solve_Succeeded
success=true
DataType=double
version=3
OpenSimVersion=4.4-2022-07-23-0e9fedc
endheader
time	/jointset/ground_pelvis/pelvis_tilt/value	/jointset/ground_pelvis/pelvis_tx/value	/jointset/ground_pelvis/pelvis_ty/value	/jointset/hip_l/hip_flexion_l/value	/jointset/hip_l/hip_adduction_l/value	/jointset/hip_l/hip_rotation_l/value	/jointset/back/lumbar_extension/value	/jointset/patellofemoral_l/patellar_flexion_l/value	/jointset/knee_l/knee_flexion_l/value	/jointset/knee_l/knee_adduction_l/value	/jointset/knee_l/knee_rotation_l/value	/jointset/ankle_l/ankle_angle_l/value	/jointset/subtalar_l/subtalar_angle_l/value	/jointset/ground_pelvis/pelvis_tilt/speed	/jointset/ground_pelvis/pelvis_tx/speed	/jointset/ground_pelvis/pelvis_ty/speed	/jointset/hip_l/hip_flexion_l/speed	/jointset/hip_l/hip_adduction_l/speed	/jointset/hip_l/hip_rotation_l/speed	/jointset/back/lumbar_extension/speed	/jointset/patellofemoral_l/patellar_flexion_l/speed	/jointset/knee_l/knee_flexion_l/speed	/jointset/knee_l/knee_adduction_l/speed	/jointset/knee_l/knee_rotation_l/speed	/jointset/ankle_l/ankle_angle_l/speed	/jointset/subtalar_l/subtalar_angle_l/speed	/forceset/tau_hip_flexion_l	/forceset/tau_hip_adduction_l	/forceset/tau_hip_rotation_l	/forceset/tau_knee_flexion_l	/forceset/tau_ankle_angle_l	/forceset/tau_subtalar_angle_l	/forceset/tau_lumbar_extension	lambda_cid13_p0	lambda_cid13_p1	lambda_cid13_p2	lambda_cid13_p3	lambda_cid13_p4	lambda_cid13_p5	lambda_cid14_p0	/jointset/ground_pelvis/pelvis_tilt/accel	/jointset/ground_pelvis/pelvis_tx/accel	/jointset/ground_pelvis/pelvis_ty/accel	/jointset/hip_l/hip_flexion_l/accel	/jointset/hip_l/hip_adduction_l/accel	/jointset/hip_l/hip_rotation_l/accel	/jointset/back/lumbar_extension/accel	/jointset/patellofemoral_l/patellar_flexion_l/accel	/jointset/knee_l/knee_flexion_l/accel	/jointset/knee_l/knee_adduction_l/accel	/jointset/knee_l/knee_rotation_l/accel	/jointset/ankle_l/ankle_angle_l/accel	/jointset/subtalar_l/subtalar_angle_l/accel	gamma_cid13_p0	gamma_cid13_p1	gamma_cid13_p2	gamma_cid13_p3	gamma_cid13_p4	gamma_cid13_p5	gamma_cid14_p0
1	-0.1325534566814006	-0.05990359139374302	0.6895909353983555	1.325907775805901	-0.3301853047531863	0.07013525151087625	-0.9599309895971672	1.360804312133798	1.360804312133778	-0.08033478928119595	-0.1745312816251644	0.2615637755223877	0.05448157288647686	0.1071066644020402	0.02598076385920375	0.06991112994252191	-0.3011225837860237	-0.006935248390330551	-0.06490854954253648	-0.0001140205500578248	-0.1614164476137783	-0.1614164476137756	-0.002506709068720349	3.575762842628584e-06	0.02360089405685194	0.002090616858118525	-0.3895527502905801	0.01247176028403029	0.000156213775563141	-0.3467269731970551	0.02515803988488381	0.03475502674580837	0.4329476151221766	-42.50678579892793	-7.855795916661653	1.031501651365034	14.15360004730513	-797.4945896083112	-73.72684409140828	-0.04201235964909406	0.979148093030656	0.007536194650155023	1.495231438228542	-5.003948438063536	-0.1341011683884622	-1.64402724368526	0.0007855845554701757	-4.845630449385334	-4.845630449384925	-0.3237551414644285	-0.01729155447136843	-1.1667537059032	-0.6428807087299288	-8.561135135609733e-09	1.367062603518736e-08	6.360177318184278e-08	3.343316197001545e-09	-2.367905319083228e-08	1.17349117246862e-07	-1.71446278100239e-08
1.01	-0.131434175178365	-0.05964336819205733	0.6903645039968906	1.322647771744942	-0.3302605677923478	0.06940328000244186	-0.9599310580619788	1.358948375629212	1.358948375629275	-0.08037415225791043	-0.1745311538509564	0.2617415223616442	0.05447141378634276	0.1167167085008708	0.02606908583509193	0.08478295498007862	-0.3508086174337055	-0.008108345623999588	-0.08147519847006041	0.0001523173505642691	-0.2097515193025903	-0.2097515193025842	-0.005363479479429518	1.943105801742438e-05	0.01193224758151767	-0.004117631251409092	-0.3885325026939937	0.01257771921753047	8.939417703421807e-05	-0.3465315702081829	0.0251800818669305	0.03491523422059607	0.4324248172976431	-42.45162969306359	-7.950331954898029	1.064050206142986	13.98559219197307	-796.9517385178044	-73.84542058394214	-0.04204259094128058	0.94699127619678	0.01026378113530945	1.480206670663041	-4.940492097438494	-0.1075689956142925	-1.661418799674958	0.04735636510372007	-4.824540789412927	-4.824540789412733	-0.2662882169294301	0.010663695151812	-1.169354338085777	-0.6090872656728232	-1.588883883510644e-08	3.824551957232587e-09	9.106814645941872e-08	1.081741887394741e-08	-3.067021341495371e-08	1.30872127921917e-07	-2.313465427973739e-08
1.02	-0.1302197814927307	-0.05938210505419743	0.691286200572631	1.318892995093866	-0.3303472928027558	0.06850595498821767	-0.9599269034539385	1.35660966935558	1.356609669355566	-0.08044201298395881	-0.1745309395991038	0.2618020958922009	0.05439931412439157	0.1261291009152455	0.0261887510940445	0.09953672538368223	-0.4000771018540502	-0.009227642647989091	-0.09797925069314792	0.0007305941427078224	-0.2579704014227405	-0.2579704014227346	-0.008206258932354361	2.087129878179401e-05	0.000166232316694988	-0.01029749550528631	-0.3875122550966005	0.01268367815105673	2.257457891880804e-05	-0.3463361672192542	0.02520212384883682	0.03507544169535141	0.4319020194738293	-42.4082472811477	-8.040737345988825	1.093576593234203	13.87426481837801	-796.5579041301937	-73.93838720784478	-0.04206967905193894	0.9396177561394231	0.01380485126300541	1.471620511437908	-4.920438592596145	-0.1233411264525712	-1.631507902797991	0.06317336285923472	-4.822392535652962	-4.822392535653283	-0.3209569499075682	-0.02017456535349541	-1.186227463800927	-0.6372039375998894	-2.431173836495663e-08	-6.338614814868618e-09	1.158994418779076e-07	2.036931399971531e-08	-3.950358365187573e-08	1.446285007188295e-07	-2.885226775382438e-08
1.03	-0.1289123990533717	-0.05911919956269786	0.6923549410628216	1.314647220126611	-0.3304449182997762	0.06744393261848096	-0.9599138067769787	1.353789195976344	1.353789195976376	-0.08053828867208611	-0.1745307036451416	0.2617449221898184	0.05426577150030274	0.1353004494848562	0.02642674530548413	0.1142016362897412	-0.4490503795170499	-0.01028823579392266	-0.1144166709771637	0.00210043093053153	-0.3061220927444516	-0.3061220927444362	-0.01105100875884174	2.678694846524634e-05	-0.01157775593846823	-0.01638789125719654	-0.3880304507928293	0.01293165924611741	-7.150324497803492e-05	-0.345939029946742	0.02546567012465004	0.03532273134664415	0.4332594066952378	-42.33362784711279	-8.183193491061287	1.141409287169019	13.19241571419066	-797.3418709553313	-74.04805875131727	-0.04210243503620561	0.8988504819077511	0.03396246738593543	1.462456200641449	-4.881649315120044	-0.09604722531033393	-1.648604614089245	0.2056422854662559	-4.811223230310105	-4.811223230308493	-0.2665716467276807	0.01107711566730193	-1.165004485997563	-0.5915003496241359	-3.274581336246348e-08	-1.650501722670602e-08	1.407038487468139e-07	2.994241108924671e-08	-4.835575195015285e-08	1.583872547618834e-07	-3.456710150346621e-08
1.04	-0.127514711713393	-0.05885288097682358	0.6935700366261635	1.309912536990481	-0.3305528754915568	0.06621778694130397	-0.9598806610422338	1.350487272523915	1.350487272523886	-0.08066307938802977	-0.1745303880375776	0.2615710046089602	0.05407201632756735	0.1441900810359434	0.02687136996898624	0.128807740014048	-0.497858735658733	-0.0112939816057168	-0.130803912176617	0.004740405667252449	-0.3542604160613549	-0.3542604160613302	-0.01390926449366688	3.680201966658924e-05	-0.02318254337857547	-0.02234000523461173	-0.3885486464885129	0.01317964034120415	-0.0001655810686031136	-0.3455418926741953	0.02572921640036887	0.03557002099792629	0.4346167939171308	-42.27100464239165	-8.321453920372557	1.186179624487921	12.56605894528445	-798.2787140234607	-74.13267536457211	-0.04213111434770456	0.8832743524347104	0.05513094167545007	1.459859075087447	-4.887454288332836	-0.1123716596247222	-1.621472085885527	0.3172009526382704	-4.819718934691389	-4.819718934691721	-0.3236581315751338	-0.01935468105001583	-1.158387300789818	-0.60954758270097	-3.618563826968776e-08	-3.076555167668209e-08	1.632567985573797e-07	2.801478836832292e-08	-5.244756581365361e-08	1.629872520586484e-07	-3.996977371398678e-08
1.05	-0.1260296070708998	-0.0585811443443666	0.6949307290561285	1.304691126955726	-0.3306705917164927	0.06482819911412861	-0.9598149131456328	1.346704351566128	1.34670435156609	-0.08081656946005462	-0.1745299790731943	0.2612816052101489	0.05381941636784681	0.1527744295409721	0.02750421943332991	0.1433037201561367	-0.546339960593376	-0.0122364482374921	-0.1470953175424176	0.008609060196869175	-0.4022896637873897	-0.4022896637873812	-0.01678658396694523	4.285275238451057e-05	-0.03468681529915792	-0.02815660429534507	-0.3884489210319985	0.01342385113851358	-0.0002934780849261778	-0.3446283216370616	0.02576265282763048	0.03593447132382412	0.4353147970042939	-42.22486276285088	-8.521931216455281	1.257111552492316	12.03538459751647	-798.3355579200835	-74.28349218178842	-0.0421746946865659	0.8375490950472346	0.07160650774923639	1.440402292352091	-4.815964834371269	-0.08327912670674599	-1.630262058460594	0.4516806846418114	-4.7894018081875	-4.78940180818986	-0.269468483744664	0.01030549776435005	-1.144872307090194	-0.5642231262322095	-3.946939286159074e-08	-4.515402775284998e-08	1.857393903348724e-07	2.572776815332248e-08	-5.639061860106763e-08	1.67301038207092e-07	-4.536269087640981e-08
1.06	-0.1244603521442564	-0.05830223030547933	0.6964355682492301	1.298987403023881	-0.3307973516001085	0.06327623977399054	-0.9597044821074393	1.342442163307755	1.342442163307749	-0.08099877265250091	-0.1745295654920021	0.2608774780582523	0.05350934900582453	0.161020137866403	0.02830685125504509	0.1576370926414937	-0.5943215150616938	-0.01310271333938121	-0.1632782147695525	0.01367703398723343	-0.4501138761785451	-0.4501138761785536	-0.01965188858184647	3.772537836959807e-05	-0.04612809399564705	-0.03383348569498492	-0.3883491955757772	0.01366806193579943	-0.0004213751010070766	-0.3437147505999387	0.02579608925493946	0.03629892164970675	0.4360128000911968	-42.19083908239559	-8.718134164261842	1.324903165532081	11.55795494035381	-798.5478188168865	-74.41085801056489	-0.0422134664363059	0.8155463165152861	0.08908741314969476	1.427337543741091	-4.787520195067779	-0.09713135364752033	-1.599770458152444	0.5570648047877547	-4.778711867715463	-4.778711867715963	-0.3212551598997164	-0.02159030239666541	-1.145788655971249	-0.5816040504823508	-4.430862369420094e-08	-6.000823346350051e-08	2.0240281507494e-07	2.713077890136623e-08	-6.209612170683538e-08	1.682761937410391e-07	-4.97500433719339e-08
1.07	-0.1228101180835525	-0.05801441389940171	0.6980829096735601	1.292806174104125	-0.3309323737629873	0.0615631074766483	-0.9595376189198365	1.337702803701711	1.337702803701733	-0.08120965161073165	-0.1745292433002928	0.2603592755498038	0.05314325390590328	0.168990120343002	0.02928744743866179	0.1718021821742693	-0.6418583997521454	-0.01388578104788511	-0.1793283760117289	0.01987333048649085	-0.4977198896192923	-0.4977198896192973	-0.02251951116038323	2.591684283963684e-05	-0.05749946040354369	-0.03935612364556373	-0.3879938256059807	0.01393906412293984	-0.0005739223421498704	-0.3425719354197753	0.02593902636362218	0.03673499632231257	0.4364949091562247	-42.09432725513808	-8.964197963202936	1.409568636831561	10.9889569536202	-798.4134405592516	-74.59132951669284	-0.04226359900993214	0.782237230441844	0.1072041111432616	1.406729489386534	-4.72689793210101	-0.06652397743911868	-1.604704491567434	0.6775711152191435	-4.745811892518422	-4.745811892517596	-0.2688875859902464	0.008951997794713968	-1.130873564249711	-0.5331955144078444	-4.92305926247211e-08	-7.488721202704906e-08	2.187567096534424e-07	2.873006789212512e-08	-6.789537216996239e-08	1.690737625401725e-07	-5.408390838517613e-08
